# Blender 3.5.0
# www.blender.org
mtllib Circle.mtl
o Ring
v 0.000001 -0.000000 -2.244087
v 0.281258 -0.000000 -2.226392
v 0.558081 -0.000000 -2.173585
v 0.826103 -0.000000 -2.086499
v 1.081097 -0.000000 -1.966509
v 1.319041 -0.000000 -1.815505
v 1.536183 -0.000000 -1.635869
v 1.729098 -0.000000 -1.430436
v 1.894745 -0.000000 -1.202443
v 2.030510 -0.000000 -0.955486
v 2.134253 -0.000000 -0.693462
v 2.204337 -0.000000 -0.420501
v 2.239658 -0.000000 -0.140908
v 2.239658 -0.000000 0.140907
v 2.204337 -0.000000 0.420499
v 2.134253 -0.000000 0.693460
v 2.030510 -0.000000 0.955485
v 1.894745 -0.000000 1.202441
v 1.729098 -0.000000 1.430434
v 1.536182 -0.000000 1.635868
v 1.319040 -0.000000 1.815504
v 1.081096 -0.000000 1.966507
v 0.826102 -0.000000 2.086498
v 0.558080 -0.000000 2.173584
v 0.281257 -0.000000 2.226391
v -0.000002 0.000000 2.244086
v -0.281261 0.000000 2.226390
v -0.558084 0.000000 2.173583
v -0.826106 0.000000 2.086497
v -1.081099 0.000000 1.966506
v -1.319043 0.000000 1.815501
v -1.536185 0.000000 1.635866
v -1.729100 0.000000 1.430431
v -1.894746 0.000000 1.202438
v -2.030511 0.000000 0.955482
v -2.134254 0.000000 0.693457
v -2.204338 0.000000 0.420496
v -2.239658 0.000000 0.140903
v -2.239658 0.000000 -0.140912
v -2.204336 0.000000 -0.420504
v -2.134252 0.000000 -0.693465
v -2.030508 0.000000 -0.955490
v -1.894742 0.000000 -1.202446
v -1.729095 0.000000 -1.430439
v -1.536180 0.000000 -1.635872
v -1.319037 0.000000 -1.815507
v -1.081093 0.000000 -1.966511
v -0.826099 0.000000 -2.086501
v -0.558077 0.000000 -2.173586
v -0.281255 0.000000 -2.226392
v 0.140907 -0.000000 -2.239657
v 0.420499 -0.000000 -2.204337
v 0.693460 -0.000000 -2.134252
v 0.955485 -0.000000 -2.030509
v 1.202440 -0.000000 -1.894744
v 1.430433 -0.000000 -1.729098
v 1.635867 -0.000000 -1.536183
v 1.815502 -0.000000 -1.319041
v 1.966506 -0.000000 -1.081097
v 2.086497 -0.000000 -0.826104
v 2.173583 -0.000000 -0.558082
v 2.226389 -0.000000 -0.281259
v 2.244085 -0.000000 -0.000001
v 2.226390 -0.000000 0.281258
v 2.173583 -0.000000 0.558081
v 2.086497 -0.000000 0.826102
v 1.966506 -0.000000 1.081096
v 1.815502 -0.000000 1.319040
v 1.635867 -0.000000 1.536182
v 1.430433 -0.000000 1.729097
v 1.202440 -0.000000 1.894743
v 0.955484 -0.000000 2.030508
v 0.693459 -0.000000 2.134251
v 0.420498 -0.000000 2.204336
v 0.140906 -0.000000 2.239656
v -0.140909 0.000000 2.239656
v -0.420502 0.000000 2.204335
v -0.693463 0.000000 2.134250
v -0.955487 0.000000 2.030507
v -1.202443 0.000000 1.894741
v -1.430436 0.000000 1.729095
v -1.635870 0.000000 1.536179
v -1.815505 0.000000 1.319037
v -1.966508 0.000000 1.081093
v -2.086498 0.000000 0.826099
v -2.173584 0.000000 0.558077
v -2.226390 0.000000 0.281254
v -2.244085 0.000000 -0.000005
v -2.226389 0.000000 -0.281263
v -2.173582 0.000000 -0.558086
v -2.086495 0.000000 -0.826107
v -1.966504 0.000000 -1.081100
v -1.815500 0.000000 -1.319044
v -1.635864 0.000000 -1.536186
v -1.430430 0.000000 -1.729100
v -1.202437 0.000000 -1.894747
v -0.955481 0.000000 -2.030511
v -0.693456 0.000000 -2.134254
v -0.420495 0.000000 -2.204337
v -0.140905 0.000000 -2.239658
vn -0.0000 -1.0000 -0.0000
vt 0.000000 0.000000
vt 0.000000 0.000000
vt 0.000000 0.000000
vt 0.000000 0.000000
vt 0.000000 0.000000
vt 0.000000 0.000000
vt 0.000000 0.000000
vt 0.000000 0.000000
vt 0.000000 0.000000
vt 0.000000 0.000000
vt 0.000000 0.000000
vt 0.000000 0.000000
vt 0.000000 0.000000
vt 0.000000 0.000000
vt 0.000000 0.000000
vt 0.000000 0.000000
vt 0.000000 0.000000
vt 0.000000 0.000000
vt 0.000000 0.000000
vt 0.000000 0.000000
vt 0.000000 0.000000
vt 0.000000 0.000000
vt 0.000000 0.000000
vt 0.000000 0.000000
vt 0.000000 0.000000
vt 0.000000 0.000000
vt 0.000000 0.000000
vt 0.000000 0.000000
vt 0.000000 0.000000
vt 0.000000 0.000000
vt 0.000000 0.000000
vt 0.000000 0.000000
vt 0.000000 0.000000
vt 0.000000 0.000000
vt 0.000000 0.000000
vt 0.000000 0.000000
vt 0.000000 0.000000
vt 0.000000 0.000000
vt 0.000000 0.000000
vt 0.000000 0.000000
vt 0.000000 0.000000
vt 0.000000 0.000000
vt 0.000000 0.000000
vt 0.000000 0.000000
vt 0.000000 0.000000
vt 0.000000 0.000000
vt 0.000000 0.000000
vt 0.000000 0.000000
vt 0.000000 0.000000
vt 0.000000 0.000000
vt 0.000000 0.000000
vt 0.000000 0.000000
vt 0.000000 0.000000
vt 0.000000 0.000000
vt 0.000000 0.000000
vt 0.000000 0.000000
vt 0.000000 0.000000
vt 0.000000 0.000000
vt 0.000000 0.000000
vt 0.000000 0.000000
vt 0.000000 0.000000
vt 0.000000 0.000000
vt 0.000000 0.000000
vt 0.000000 0.000000
vt 0.000000 0.000000
vt 0.000000 0.000000
vt 0.000000 0.000000
vt 0.000000 0.000000
vt 0.000000 0.000000
vt 0.000000 0.000000
vt 0.000000 0.000000
vt 0.000000 0.000000
vt 0.000000 0.000000
vt 0.000000 0.000000
vt 0.000000 0.000000
vt 0.000000 0.000000
vt 0.000000 0.000000
vt 0.000000 0.000000
vt 0.000000 0.000000
vt 0.000000 0.000000
vt 0.000000 0.000000
vt 0.000000 0.000000
vt 0.000000 0.000000
vt 0.000000 0.000000
vt 0.000000 0.000000
vt 0.000000 0.000000
vt 0.000000 0.000000
vt 0.000000 0.000000
vt 0.000000 0.000000
vt 0.000000 0.000000
vt 0.000000 0.000000
vt 0.000000 0.000000
vt 0.000000 0.000000
vt 0.000000 0.000000
vt 0.000000 0.000000
vt 0.000000 0.000000
vt 0.000000 0.000000
vt 0.000000 0.000000
vt 0.000000 0.000000
vt 0.000000 0.000000
s 0
usemtl Saturn's_ring
f 55/55/1 71/71/1 87/87/1
f 51/51/1 2/2/1 52/52/1
f 52/52/1 3/3/1 53/53/1
f 53/53/1 4/4/1 54/54/1
f 54/54/1 5/5/1 55/55/1
f 55/55/1 6/6/1 56/56/1
f 56/56/1 7/7/1 57/57/1
f 57/57/1 8/8/1 58/58/1
f 58/58/1 9/9/1 59/59/1
f 59/59/1 10/10/1 60/60/1
f 60/60/1 11/11/1 61/61/1
f 61/61/1 12/12/1 62/62/1
f 62/62/1 13/13/1 63/63/1
f 63/63/1 14/14/1 64/64/1
f 64/64/1 15/15/1 65/65/1
f 65/65/1 16/16/1 66/66/1
f 66/66/1 17/17/1 67/67/1
f 67/67/1 18/18/1 68/68/1
f 68/68/1 19/19/1 69/69/1
f 69/69/1 20/20/1 70/70/1
f 70/70/1 21/21/1 71/71/1
f 71/71/1 22/22/1 72/72/1
f 72/72/1 23/23/1 73/73/1
f 73/73/1 24/24/1 74/74/1
f 74/74/1 25/25/1 75/75/1
f 75/75/1 26/26/1 76/76/1
f 76/76/1 27/27/1 77/77/1
f 77/77/1 28/28/1 78/78/1
f 78/78/1 29/29/1 79/79/1
f 79/79/1 30/30/1 80/80/1
f 80/80/1 31/31/1 81/81/1
f 81/81/1 32/32/1 82/82/1
f 82/82/1 33/33/1 83/83/1
f 83/83/1 34/34/1 84/84/1
f 84/84/1 35/35/1 85/85/1
f 85/85/1 36/36/1 86/86/1
f 86/86/1 37/37/1 87/87/1
f 87/87/1 38/38/1 88/88/1
f 88/88/1 39/39/1 89/89/1
f 89/89/1 40/40/1 90/90/1
f 90/90/1 41/41/1 91/91/1
f 91/91/1 42/42/1 92/92/1
f 92/92/1 43/43/1 93/93/1
f 93/93/1 44/44/1 94/94/1
f 94/94/1 45/45/1 95/95/1
f 95/95/1 46/46/1 96/96/1
f 96/96/1 47/47/1 97/97/1
f 97/97/1 48/48/1 98/98/1
f 98/98/1 49/49/1 99/99/1
f 99/99/1 50/50/1 100/100/1
f 100/100/1 1/1/1 51/51/1
f 51/51/1 52/52/1 53/53/1
f 53/53/1 54/54/1 55/55/1
f 55/55/1 56/56/1 57/57/1
f 57/57/1 58/58/1 55/55/1
f 58/58/1 59/59/1 55/55/1
f 59/59/1 60/60/1 61/61/1
f 61/61/1 62/62/1 63/63/1
f 63/63/1 64/64/1 65/65/1
f 65/65/1 66/66/1 67/67/1
f 67/67/1 68/68/1 69/69/1
f 69/69/1 70/70/1 71/71/1
f 71/71/1 72/72/1 75/75/1
f 72/72/1 73/73/1 75/75/1
f 73/73/1 74/74/1 75/75/1
f 75/75/1 76/76/1 77/77/1
f 77/77/1 78/78/1 75/75/1
f 78/78/1 79/79/1 75/75/1
f 79/79/1 80/80/1 81/81/1
f 81/81/1 82/82/1 79/79/1
f 82/82/1 83/83/1 79/79/1
f 83/83/1 84/84/1 85/85/1
f 85/85/1 86/86/1 87/87/1
f 87/87/1 88/88/1 89/89/1
f 89/89/1 90/90/1 91/91/1
f 91/91/1 92/92/1 93/93/1
f 93/93/1 94/94/1 95/95/1
f 95/95/1 96/96/1 97/97/1
f 97/97/1 98/98/1 95/95/1
f 98/98/1 99/99/1 95/95/1
f 99/99/1 100/100/1 51/51/1
f 51/51/1 53/53/1 55/55/1
f 59/59/1 61/61/1 55/55/1
f 61/61/1 63/63/1 55/55/1
f 63/63/1 65/65/1 71/71/1
f 65/65/1 67/67/1 71/71/1
f 67/67/1 69/69/1 71/71/1
f 83/83/1 85/85/1 79/79/1
f 85/85/1 87/87/1 79/79/1
f 87/87/1 89/89/1 91/91/1
f 91/91/1 93/93/1 95/95/1
f 99/99/1 51/51/1 55/55/1
f 71/71/1 75/75/1 79/79/1
f 87/87/1 91/91/1 55/55/1
f 91/91/1 95/95/1 55/55/1
f 95/95/1 99/99/1 55/55/1
f 55/55/1 63/63/1 71/71/1
f 71/71/1 79/79/1 87/87/1
